<mxfile host="app.diagrams.net" agent="Mozilla/5.0 (Macintosh; Intel Mac OS X 10_15_7) AppleWebKit/537.36 (KHTML, like Gecko) Chrome/132.0.0.0 Safari/537.36" version="24.8.2">
  <diagram name="Page-1" id="_6Ou2vyIiJacVviFSDDl">
    <mxGraphModel dx="1472" dy="788" grid="1" gridSize="10" guides="1" tooltips="1" connect="1" arrows="1" fold="1" page="1" pageScale="1" pageWidth="850" pageHeight="1100" math="0" shadow="0">
      <root>
        <mxCell id="0" />
        <mxCell id="1" parent="0" />
        <mxCell id="4Rh9HGUH51ezD_pu8aO8-1" value="&lt;font color=&quot;#6c8ebf&quot; style=&quot;font-size: 16px;&quot;&gt;APP for USER&lt;/font&gt;" style="rounded=0;whiteSpace=wrap;html=1;verticalAlign=top;fillColor=#DAE8FC;strokeColor=#6C8EBF;" vertex="1" parent="1">
          <mxGeometry x="40" y="120" width="360" height="440" as="geometry" />
        </mxCell>
        <mxCell id="4Rh9HGUH51ezD_pu8aO8-2" value="&lt;span id=&quot;docs-internal-guid-0b733362-7fff-4ea3-4a3c-9b98c2995169&quot;&gt;&lt;p style=&quot;line-height:1.2;margin-top:0pt;margin-bottom:0pt;&quot; dir=&quot;ltr&quot;&gt;&lt;span style=&quot;font-size: 12pt; font-family: Arial, sans-serif; background-color: transparent; font-variant-numeric: normal; font-variant-east-asian: normal; font-variant-alternates: normal; font-variant-position: normal; font-variant-emoji: normal; vertical-align: baseline; white-space-collapse: preserve;&quot;&gt;&lt;font color=&quot;#e6e6e6&quot;&gt;The app receives a question from the user, publishes it to a message broker. When a response is available, the app receives it from the broker and displays it to the user.&lt;/font&gt;&lt;/span&gt;&lt;/p&gt;&lt;div&gt;&lt;span style=&quot;font-size: 12pt; font-family: Arial, sans-serif; background-color: transparent; font-variant-numeric: normal; font-variant-east-asian: normal; font-variant-alternates: normal; font-variant-position: normal; font-variant-emoji: normal; vertical-align: baseline; white-space-collapse: preserve;&quot;&gt;&lt;br&gt;&lt;/span&gt;&lt;/div&gt;&lt;/span&gt;" style="shape=callout;whiteSpace=wrap;html=1;perimeter=calloutPerimeter;fillColor=#6C8EBF;strokeColor=#FFFFFF;strokeWidth=2;verticalAlign=top;" vertex="1" parent="1">
          <mxGeometry x="50" y="170" width="340" height="170" as="geometry" />
        </mxCell>
        <mxCell id="4Rh9HGUH51ezD_pu8aO8-3" value="" style="rounded=0;whiteSpace=wrap;html=1;strokeColor=#FFFFFF;fillColor=#6C8EBF;strokeWidth=2;" vertex="1" parent="1">
          <mxGeometry x="70" y="390" width="310" height="140" as="geometry" />
        </mxCell>
        <mxCell id="4Rh9HGUH51ezD_pu8aO8-13" style="rounded=0;orthogonalLoop=1;jettySize=auto;html=1;entryX=0;entryY=0.5;entryDx=0;entryDy=0;exitX=1;exitY=0.5;exitDx=0;exitDy=0;strokeColor=#DAE8FC;" edge="1" parent="1" source="4Rh9HGUH51ezD_pu8aO8-4" target="4Rh9HGUH51ezD_pu8aO8-6">
          <mxGeometry relative="1" as="geometry" />
        </mxCell>
        <mxCell id="4Rh9HGUH51ezD_pu8aO8-4" value="Frontend" style="rounded=0;whiteSpace=wrap;html=1;fillColor=#DAE8FC;strokeColor=#FFFFFF;fontColor=#6C8EBF;" vertex="1" parent="1">
          <mxGeometry x="110" y="410" width="90" height="40" as="geometry" />
        </mxCell>
        <mxCell id="4Rh9HGUH51ezD_pu8aO8-14" style="rounded=0;orthogonalLoop=1;jettySize=auto;html=1;entryX=0;entryY=0.5;entryDx=0;entryDy=0;exitX=1;exitY=0.5;exitDx=0;exitDy=0;strokeColor=#DAE8FC;" edge="1" parent="1" source="4Rh9HGUH51ezD_pu8aO8-5" target="4Rh9HGUH51ezD_pu8aO8-6">
          <mxGeometry relative="1" as="geometry" />
        </mxCell>
        <mxCell id="4Rh9HGUH51ezD_pu8aO8-5" value="CLI" style="rounded=0;whiteSpace=wrap;html=1;fillColor=#DAE8FC;strokeColor=#FFFFFF;fontColor=#6C8EBF;" vertex="1" parent="1">
          <mxGeometry x="110" y="470" width="90" height="40" as="geometry" />
        </mxCell>
        <mxCell id="4Rh9HGUH51ezD_pu8aO8-6" value="CORE" style="rounded=0;whiteSpace=wrap;html=1;fillColor=#DAE8FC;strokeColor=#FFFFFF;fontColor=#6C8EBF;" vertex="1" parent="1">
          <mxGeometry x="250" y="440" width="90" height="40" as="geometry" />
        </mxCell>
        <mxCell id="4Rh9HGUH51ezD_pu8aO8-7" value="&lt;font color=&quot;#82b366&quot; style=&quot;font-size: 16px;&quot;&gt;Persistent data&lt;/font&gt;" style="rounded=0;whiteSpace=wrap;html=1;verticalAlign=top;fillColor=#d5e8d4;strokeColor=#82b366;" vertex="1" parent="1">
          <mxGeometry x="440" y="120" width="360" height="440" as="geometry" />
        </mxCell>
        <mxCell id="4Rh9HGUH51ezD_pu8aO8-8" value="&lt;span id=&quot;docs-internal-guid-0b733362-7fff-4ea3-4a3c-9b98c2995169&quot;&gt;&lt;font color=&quot;#e6e6e6&quot;&gt;&lt;p style=&quot;line-height:1.2;margin-top:0pt;margin-bottom:0pt;&quot; dir=&quot;ltr&quot;&gt;&lt;span id=&quot;docs-internal-guid-7b22f9f0-7fff-ddb9-b5e7-70d76967f449&quot;&gt;&lt;/span&gt;&lt;/p&gt;&lt;p style=&quot;line-height:1.2;margin-top:0pt;margin-bottom:0pt;&quot; dir=&quot;ltr&quot;&gt;&lt;span style=&quot;font-size: 12pt; font-family: Arial, sans-serif; background-color: transparent; font-weight: 400; font-style: normal; font-variant: normal; text-decoration: none; vertical-align: baseline; white-space: pre-wrap;&quot;&gt;The layer there challenge of persistent the data and connect the APP across the message broker (MB) and cache.&lt;/span&gt;&lt;/p&gt;&lt;/font&gt;&lt;/span&gt;" style="shape=callout;whiteSpace=wrap;html=1;perimeter=calloutPerimeter;fillColor=#82B366;strokeColor=#FFFFFF;strokeWidth=2;verticalAlign=top;" vertex="1" parent="1">
          <mxGeometry x="450" y="170" width="340" height="170" as="geometry" />
        </mxCell>
        <mxCell id="4Rh9HGUH51ezD_pu8aO8-9" value="" style="rounded=0;whiteSpace=wrap;html=1;strokeColor=#FFFFFF;fillColor=#82B366;strokeWidth=2;" vertex="1" parent="1">
          <mxGeometry x="470" y="390" width="310" height="140" as="geometry" />
        </mxCell>
        <mxCell id="4Rh9HGUH51ezD_pu8aO8-10" value="Cache" style="rounded=0;whiteSpace=wrap;html=1;fillColor=#d5e8d4;strokeColor=#82b366;fontColor=#82B366;" vertex="1" parent="1">
          <mxGeometry x="490" y="410" width="90" height="40" as="geometry" />
        </mxCell>
        <mxCell id="4Rh9HGUH51ezD_pu8aO8-11" value="MB" style="rounded=0;whiteSpace=wrap;html=1;fillColor=#d5e8d4;strokeColor=#82b366;fontColor=#82B366;" vertex="1" parent="1">
          <mxGeometry x="590" y="470" width="90" height="40" as="geometry" />
        </mxCell>
        <mxCell id="4Rh9HGUH51ezD_pu8aO8-12" value="Database" style="rounded=0;whiteSpace=wrap;html=1;fillColor=#d5e8d4;strokeColor=#82b366;fontColor=#82B366;" vertex="1" parent="1">
          <mxGeometry x="680" y="410" width="90" height="40" as="geometry" />
        </mxCell>
        <mxCell id="4Rh9HGUH51ezD_pu8aO8-15" value="&lt;font style=&quot;font-size: 16px;&quot;&gt;Data handler&lt;/font&gt;" style="rounded=0;whiteSpace=wrap;html=1;verticalAlign=top;fillColor=#ffe6cc;strokeColor=#d79b00;fontColor=#D79B00;" vertex="1" parent="1">
          <mxGeometry x="840" y="120" width="360" height="440" as="geometry" />
        </mxCell>
        <mxCell id="4Rh9HGUH51ezD_pu8aO8-16" value="&lt;span id=&quot;docs-internal-guid-0b733362-7fff-4ea3-4a3c-9b98c2995169&quot;&gt;&lt;font color=&quot;#e6e6e6&quot;&gt;&lt;p style=&quot;line-height:1.2;margin-top:0pt;margin-bottom:0pt;&quot; dir=&quot;ltr&quot;&gt;&lt;span id=&quot;docs-internal-guid-7b22f9f0-7fff-ddb9-b5e7-70d76967f449&quot;&gt;&lt;/span&gt;&lt;/p&gt;&lt;p style=&quot;line-height:1.2;margin-top:0pt;margin-bottom:0pt;&quot; dir=&quot;ltr&quot;&gt;&lt;span style=&quot;font-size: 12pt; font-family: Arial, sans-serif; background-color: transparent; font-weight: 400; font-style: normal; font-variant: normal; text-decoration: none; vertical-align: baseline; white-space: pre-wrap;&quot;&gt;This app transforms data by processing and formatting it according to requests.&lt;/span&gt;&lt;/p&gt;&lt;/font&gt;&lt;/span&gt;" style="shape=callout;whiteSpace=wrap;html=1;perimeter=calloutPerimeter;fillColor=#D79B00;strokeColor=#FFFFFF;strokeWidth=2;verticalAlign=top;" vertex="1" parent="1">
          <mxGeometry x="850" y="170" width="340" height="170" as="geometry" />
        </mxCell>
        <mxCell id="4Rh9HGUH51ezD_pu8aO8-17" value="" style="rounded=0;whiteSpace=wrap;html=1;strokeColor=#FFFFFF;fillColor=#D79B00;strokeWidth=2;" vertex="1" parent="1">
          <mxGeometry x="870" y="390" width="310" height="140" as="geometry" />
        </mxCell>
        <mxCell id="4Rh9HGUH51ezD_pu8aO8-18" value="&lt;ol&gt;&lt;li&gt;Check the Queue&lt;/li&gt;&lt;li&gt;Process and transform data&lt;/li&gt;&lt;li&gt;Save data on DB&lt;/li&gt;&lt;li&gt;Put in transformed data on MB&amp;nbsp;&lt;/li&gt;&lt;/ol&gt;" style="rounded=0;whiteSpace=wrap;html=1;fillColor=#ffe6cc;strokeColor=#FFFFFF;align=left;fontColor=#D79B00;" vertex="1" parent="1">
          <mxGeometry x="890" y="410" width="270" height="110" as="geometry" />
        </mxCell>
        <mxCell id="4Rh9HGUH51ezD_pu8aO8-21" value="&lt;font style=&quot;font-size: 16px;&quot;&gt;Data handler&lt;/font&gt;" style="rounded=0;whiteSpace=wrap;html=1;verticalAlign=top;fillColor=#f8cecc;strokeColor=#b85450;fontColor=#B85450;" vertex="1" parent="1">
          <mxGeometry x="1240" y="120" width="360" height="440" as="geometry" />
        </mxCell>
        <mxCell id="4Rh9HGUH51ezD_pu8aO8-22" value="&lt;span id=&quot;docs-internal-guid-0b733362-7fff-4ea3-4a3c-9b98c2995169&quot;&gt;&lt;font color=&quot;#e6e6e6&quot;&gt;&lt;p style=&quot;line-height:1.2;margin-top:0pt;margin-bottom:0pt;&quot; dir=&quot;ltr&quot;&gt;&lt;span id=&quot;docs-internal-guid-7b22f9f0-7fff-ddb9-b5e7-70d76967f449&quot;&gt;&lt;/span&gt;&lt;/p&gt;&lt;p style=&quot;line-height:1.2;margin-top:0pt;margin-bottom:0pt;&quot; dir=&quot;ltr&quot;&gt;&lt;span style=&quot;font-size: 12pt; font-family: Arial, sans-serif; background-color: transparent; font-weight: 400; font-style: normal; font-variant: normal; text-decoration: none; vertical-align: baseline; white-space: pre-wrap;&quot;&gt;The AI Engine&#39;s primary challenge is to efficiently handle incoming requests and generate accurate responses. To achieve this, the AI Engine analyzes data from CSV files and databases to identify and construct the most suitable response.&lt;/span&gt;&lt;/p&gt;&lt;/font&gt;&lt;/span&gt;" style="shape=callout;whiteSpace=wrap;html=1;perimeter=calloutPerimeter;fillColor=#B85450;strokeColor=#FFFFFF;strokeWidth=2;verticalAlign=top;" vertex="1" parent="1">
          <mxGeometry x="1250" y="170" width="340" height="170" as="geometry" />
        </mxCell>
        <mxCell id="4Rh9HGUH51ezD_pu8aO8-23" value="" style="rounded=0;whiteSpace=wrap;html=1;strokeColor=#FFFFFF;fillColor=#B85450;strokeWidth=2;" vertex="1" parent="1">
          <mxGeometry x="1270" y="390" width="310" height="140" as="geometry" />
        </mxCell>
        <mxCell id="4Rh9HGUH51ezD_pu8aO8-24" value="&lt;ol&gt;&lt;li&gt;Check the request queue&lt;/li&gt;&lt;li&gt;Process and generate the response&lt;/li&gt;&lt;li&gt;Put in the response at response queue&lt;/li&gt;&lt;/ol&gt;" style="rounded=0;whiteSpace=wrap;html=1;fillColor=#f8cecc;strokeColor=#FFFFFF;align=left;fontColor=#B85450;" vertex="1" parent="1">
          <mxGeometry x="1290" y="410" width="270" height="110" as="geometry" />
        </mxCell>
      </root>
    </mxGraphModel>
  </diagram>
</mxfile>
